<svg width="149" height="114" viewBox="0 0 149 114" fill="none" xmlns="http://www.w3.org/2000/svg">
<rect x="0.5" y="0.5" width="148" height="113" rx="14.5" fill="white" stroke="white"/>
<rect opacity="0.4" x="20" y="54" width="37" height="37" rx="7" fill="#F17D7D"/>
<path d="M35.125 78.4062V79.5391C35.1251 79.9825 35.0377 80.4215 34.8681 80.8311C34.6984 81.2407 34.4497 81.6129 34.1361 81.9264L33.4375 82.625H43.5625L42.8639 81.9264C42.5503 81.6129 42.3016 81.2407 42.1319 80.8311C41.9623 80.4215 41.8749 79.9825 41.875 79.5391V78.4062M48.625 64.9062V75.875C48.625 76.5463 48.3583 77.1902 47.8836 77.6649C47.4089 78.1396 46.7651 78.4062 46.0938 78.4062H30.9062C30.2349 78.4062 29.5911 78.1396 29.1164 77.6649C28.6417 77.1902 28.375 76.5463 28.375 75.875V64.9062M48.625 64.9062C48.625 64.2349 48.3583 63.5911 47.8836 63.1164C47.4089 62.6417 46.7651 62.375 46.0938 62.375H30.9062C30.2349 62.375 29.5911 62.6417 29.1164 63.1164C28.6417 63.5911 28.375 64.2349 28.375 64.9062M48.625 64.9062V72.5C48.625 73.1713 48.3583 73.8152 47.8836 74.2899C47.4089 74.7646 46.7651 75.0312 46.0938 75.0312H30.9062C30.2349 75.0312 29.5911 74.7646 29.1164 74.2899C28.6417 73.8152 28.375 73.1713 28.375 72.5V64.9062" stroke="#FF4343" stroke-width="1.6875" stroke-linecap="round" stroke-linejoin="round"/>
<path d="M40.8608 33V24.2727H44.1335C44.804 24.2727 45.3665 24.3892 45.821 24.6222C46.2784 24.8551 46.6236 25.1818 46.8565 25.6023C47.0923 26.0199 47.2102 26.5071 47.2102 27.0639C47.2102 27.6236 47.0909 28.1094 46.8523 28.5213C46.6165 28.9304 46.2685 29.2472 45.8082 29.4716C45.348 29.6932 44.7827 29.804 44.1122 29.804H41.7812V28.4915H43.8991C44.2912 28.4915 44.6122 28.4375 44.8622 28.3295C45.1122 28.2187 45.2969 28.0582 45.4162 27.848C45.5384 27.6349 45.5994 27.3736 45.5994 27.0639C45.5994 26.7543 45.5384 26.4901 45.4162 26.2713C45.294 26.0497 45.108 25.8821 44.858 25.7685C44.608 25.652 44.2855 25.5938 43.8906 25.5938H42.4418V33H40.8608ZM45.3693 29.0455L47.5298 33H45.7656L43.6435 29.0455H45.3693ZM51.4013 33.1278C50.745 33.1278 50.1783 32.9915 49.701 32.7188C49.2266 32.4432 48.8615 32.054 48.6058 31.5511C48.3501 31.0455 48.2223 30.4503 48.2223 29.7656C48.2223 29.0923 48.3501 28.5014 48.6058 27.9929C48.8643 27.4815 49.2251 27.0838 49.6882 26.7997C50.1513 26.5128 50.6953 26.3693 51.3203 26.3693C51.7237 26.3693 52.1044 26.4347 52.4624 26.5653C52.8232 26.6932 53.1413 26.892 53.4169 27.1619C53.6953 27.4318 53.9141 27.7756 54.0732 28.1932C54.2322 28.608 54.3118 29.1023 54.3118 29.6761V30.1491H48.9467V29.1094H52.8331C52.8303 28.8139 52.7663 28.5511 52.6413 28.321C52.5163 28.0881 52.3416 27.9048 52.1172 27.7713C51.8956 27.6378 51.6371 27.571 51.3416 27.571C51.0263 27.571 50.7493 27.6477 50.5107 27.8011C50.272 27.9517 50.0859 28.1506 49.9524 28.3977C49.8217 28.642 49.755 28.9105 49.7521 29.2031V30.1108C49.7521 30.4915 49.8217 30.8182 49.9609 31.0909C50.1001 31.3608 50.2947 31.5682 50.5447 31.7131C50.7947 31.8551 51.0874 31.9261 51.4226 31.9261C51.647 31.9261 51.8501 31.8949 52.032 31.8324C52.2138 31.767 52.3714 31.6719 52.505 31.5469C52.6385 31.4219 52.7393 31.267 52.8075 31.0824L54.2479 31.2443C54.157 31.625 53.9837 31.9574 53.728 32.2415C53.4751 32.5227 53.1513 32.7415 52.7564 32.8977C52.3615 33.0511 51.9098 33.1278 51.4013 33.1278ZM60.7901 28.1847L59.3839 28.3381C59.3441 28.196 59.2745 28.0625 59.1751 27.9375C59.0785 27.8125 58.9478 27.7116 58.783 27.6349C58.6183 27.5582 58.4165 27.5199 58.1779 27.5199C57.8569 27.5199 57.587 27.5895 57.3683 27.7287C57.1523 27.8679 57.0458 28.0483 57.0487 28.2699C57.0458 28.4602 57.1154 28.6151 57.2575 28.7344C57.4023 28.8537 57.641 28.9517 57.9734 29.0284L59.0898 29.267C59.7092 29.4006 60.1694 29.6122 60.4705 29.902C60.7745 30.1918 60.9279 30.571 60.9308 31.0398C60.9279 31.4517 60.8072 31.8153 60.5685 32.1307C60.3327 32.4432 60.0046 32.6875 59.5842 32.8636C59.1637 33.0398 58.6808 33.1278 58.1353 33.1278C57.3342 33.1278 56.6893 32.9602 56.2006 32.625C55.712 32.2869 55.4208 31.8168 55.3271 31.2145L56.8313 31.0696C56.8995 31.3651 57.0444 31.5881 57.266 31.7386C57.4876 31.8892 57.7759 31.9645 58.131 31.9645C58.4975 31.9645 58.7915 31.8892 59.0131 31.7386C59.2376 31.5881 59.3498 31.402 59.3498 31.1804C59.3498 30.9929 59.2773 30.8381 59.1325 30.7159C58.9904 30.5937 58.7688 30.5 58.4677 30.4347L57.3512 30.2003C56.7234 30.0696 56.2589 29.8494 55.9577 29.5398C55.6566 29.2273 55.5075 28.8324 55.5103 28.3551C55.5075 27.9517 55.6168 27.6023 55.8384 27.3068C56.0629 27.0085 56.3739 26.7784 56.7717 26.6165C57.1722 26.4517 57.6339 26.3693 58.1566 26.3693C58.9237 26.3693 59.5273 26.5327 59.9677 26.8594C60.4109 27.1861 60.685 27.6278 60.7901 28.1847ZM62.2028 35.4545V26.4545H63.7198V27.5369H63.8093C63.8888 27.3778 64.0011 27.2088 64.146 27.0298C64.2908 26.848 64.4869 26.6932 64.734 26.5653C64.9812 26.4347 65.2965 26.3693 65.68 26.3693C66.1857 26.3693 66.6417 26.4986 67.0479 26.7571C67.457 27.0128 67.7809 27.392 68.0195 27.8949C68.261 28.3949 68.3817 29.0085 68.3817 29.7358C68.3817 30.4545 68.2638 31.0653 68.0281 31.5682C67.7923 32.071 67.4712 32.4545 67.065 32.7188C66.6587 32.983 66.1985 33.1151 65.6843 33.1151C65.3093 33.1151 64.9982 33.0526 64.7511 32.9276C64.5039 32.8026 64.305 32.652 64.1545 32.4759C64.0067 32.2969 63.8917 32.1278 63.8093 31.9688H63.7454V35.4545H62.2028ZM63.7156 29.7273C63.7156 30.1506 63.7752 30.5213 63.8945 30.8395C64.0167 31.1577 64.1914 31.4062 64.4187 31.5852C64.6488 31.7614 64.9272 31.8494 65.2539 31.8494C65.5948 31.8494 65.8803 31.7585 66.1104 31.5767C66.3406 31.392 66.5138 31.1406 66.6303 30.8224C66.7496 30.5014 66.8093 30.1364 66.8093 29.7273C66.8093 29.321 66.7511 28.9602 66.6346 28.6449C66.5181 28.3295 66.3448 28.0824 66.1147 27.9034C65.8846 27.7244 65.5977 27.6349 65.2539 27.6349C64.9244 27.6349 64.6445 27.7216 64.4144 27.8949C64.1843 28.0682 64.0096 28.3111 63.8903 28.6236C63.7738 28.9361 63.7156 29.304 63.7156 29.7273ZM72.5579 33.1278C71.9187 33.1278 71.3647 32.9872 70.896 32.706C70.4272 32.4247 70.0636 32.0312 69.805 31.5256C69.5494 31.0199 69.4215 30.429 69.4215 29.7528C69.4215 29.0767 69.5494 28.4844 69.805 27.9759C70.0636 27.4673 70.4272 27.0724 70.896 26.7912C71.3647 26.5099 71.9187 26.3693 72.5579 26.3693C73.1971 26.3693 73.7511 26.5099 74.2198 26.7912C74.6886 27.0724 75.0508 27.4673 75.3065 27.9759C75.565 28.4844 75.6942 29.0767 75.6942 29.7528C75.6942 30.429 75.565 31.0199 75.3065 31.5256C75.0508 32.0312 74.6886 32.4247 74.2198 32.706C73.7511 32.9872 73.1971 33.1278 72.5579 33.1278ZM72.5664 31.892C72.913 31.892 73.2028 31.7969 73.4357 31.6065C73.6687 31.4134 73.842 31.1548 73.9556 30.831C74.0721 30.5071 74.1303 30.1463 74.1303 29.7486C74.1303 29.348 74.0721 28.9858 73.9556 28.6619C73.842 28.3352 73.6687 28.0753 73.4357 27.8821C73.2028 27.6889 72.913 27.5923 72.5664 27.5923C72.2113 27.5923 71.9158 27.6889 71.68 27.8821C71.4471 28.0753 71.2724 28.3352 71.1559 28.6619C71.0423 28.9858 70.9854 29.348 70.9854 29.7486C70.9854 30.1463 71.0423 30.5071 71.1559 30.831C71.2724 31.1548 71.4471 31.4134 71.68 31.6065C71.9158 31.7969 72.2113 31.892 72.5664 31.892ZM78.5462 29.1648V33H77.0036V26.4545H78.478V27.5668H78.5547C78.7053 27.2003 78.9453 26.9091 79.2749 26.6932C79.6072 26.4773 80.0178 26.3693 80.5064 26.3693C80.9581 26.3693 81.3516 26.4659 81.6868 26.6591C82.0249 26.8523 82.2862 27.1321 82.4709 27.4986C82.6584 27.8651 82.7507 28.3097 82.7479 28.8324V33H81.2053V29.071C81.2053 28.6335 81.0916 28.2912 80.8643 28.044C80.6399 27.7969 80.3288 27.6733 79.9311 27.6733C79.6612 27.6733 79.4212 27.733 79.2109 27.8523C79.0036 27.9687 78.8402 28.1378 78.7209 28.3594C78.6044 28.581 78.5462 28.8494 78.5462 29.1648ZM89.4893 28.1847L88.0831 28.3381C88.0433 28.196 87.9737 28.0625 87.8743 27.9375C87.7777 27.8125 87.647 27.7116 87.4822 27.6349C87.3175 27.5582 87.1158 27.5199 86.8771 27.5199C86.5561 27.5199 86.2862 27.5895 86.0675 27.7287C85.8516 27.8679 85.745 28.0483 85.7479 28.2699C85.745 28.4602 85.8146 28.6151 85.9567 28.7344C86.1016 28.8537 86.3402 28.9517 86.6726 29.0284L87.7891 29.267C88.4084 29.4006 88.8686 29.6122 89.1697 29.902C89.4737 30.1918 89.6271 30.571 89.63 31.0398C89.6271 31.4517 89.5064 31.8153 89.2678 32.1307C89.032 32.4432 88.7038 32.6875 88.2834 32.8636C87.8629 33.0398 87.38 33.1278 86.8345 33.1278C86.0334 33.1278 85.3885 32.9602 84.8999 32.625C84.4112 32.2869 84.12 31.8168 84.0263 31.2145L85.5305 31.0696C85.5987 31.3651 85.7436 31.5881 85.9652 31.7386C86.1868 31.8892 86.4751 31.9645 86.8303 31.9645C87.1967 31.9645 87.4908 31.8892 87.7124 31.7386C87.9368 31.5881 88.049 31.402 88.049 31.1804C88.049 30.9929 87.9766 30.8381 87.8317 30.7159C87.6896 30.5937 87.468 30.5 87.1669 30.4347L86.0504 30.2003C85.4226 30.0696 84.9581 29.8494 84.657 29.5398C84.3558 29.2273 84.2067 28.8324 84.2095 28.3551C84.2067 27.9517 84.3161 27.6023 84.5376 27.3068C84.7621 27.0085 85.0732 26.7784 85.4709 26.6165C85.8714 26.4517 86.3331 26.3693 86.8558 26.3693C87.6229 26.3693 88.2266 26.5327 88.6669 26.8594C89.1101 27.1861 89.3842 27.6278 89.4893 28.1847ZM90.902 33V26.4545H92.4446V33H90.902ZM91.6776 25.5256C91.4332 25.5256 91.223 25.4446 91.0469 25.2827C90.8707 25.1179 90.7827 24.9205 90.7827 24.6903C90.7827 24.4574 90.8707 24.2599 91.0469 24.098C91.223 23.9332 91.4332 23.8509 91.6776 23.8509C91.9247 23.8509 92.1349 23.9332 92.3082 24.098C92.4844 24.2599 92.5724 24.4574 92.5724 24.6903C92.5724 24.9205 92.4844 25.1179 92.3082 25.2827C92.1349 25.4446 91.9247 25.5256 91.6776 25.5256ZM99.8775 26.4545L97.5465 33H95.842L93.511 26.4545H95.1559L96.6602 31.3168H96.7283L98.2369 26.4545H99.8775ZM103.62 33.1278C102.964 33.1278 102.397 32.9915 101.92 32.7188C101.445 32.4432 101.08 32.054 100.825 31.5511C100.569 31.0455 100.441 30.4503 100.441 29.7656C100.441 29.0923 100.569 28.5014 100.825 27.9929C101.083 27.4815 101.444 27.0838 101.907 26.7997C102.37 26.5128 102.914 26.3693 103.539 26.3693C103.942 26.3693 104.323 26.4347 104.681 26.5653C105.042 26.6932 105.36 26.892 105.636 27.1619C105.914 27.4318 106.133 27.7756 106.292 28.1932C106.451 28.608 106.531 29.1023 106.531 29.6761V30.1491H101.165V29.1094H105.052C105.049 28.8139 104.985 28.5511 104.86 28.321C104.735 28.0881 104.56 27.9048 104.336 27.7713C104.114 27.6378 103.856 27.571 103.56 27.571C103.245 27.571 102.968 27.6477 102.729 27.8011C102.491 27.9517 102.305 28.1506 102.171 28.3977C102.04 28.642 101.974 28.9105 101.971 29.2031V30.1108C101.971 30.4915 102.04 30.8182 102.18 31.0909C102.319 31.3608 102.513 31.5682 102.763 31.7131C103.013 31.8551 103.306 31.9261 103.641 31.9261C103.866 31.9261 104.069 31.8949 104.251 31.8324C104.433 31.767 104.59 31.6719 104.724 31.5469C104.857 31.4219 104.958 31.267 105.026 31.0824L106.467 31.2443C106.376 31.625 106.202 31.9574 105.947 32.2415C105.694 32.5227 105.37 32.7415 104.975 32.8977C104.58 33.0511 104.129 33.1278 103.62 33.1278Z" fill="#121212" fill-opacity="0.8"/>
<rect x="76" y="62" width="16" height="21" rx="2" stroke="#181716" stroke-width="2"/>
<circle cx="84" cy="77" r="2" fill="#181716"/>
<rect x="112" y="62" width="16" height="21" rx="2" stroke="#181716" stroke-width="2"/>
<circle cx="120" cy="77" r="2" fill="#181716"/>
</svg>
